<svg width="23" height="22" viewBox="0 0 23 22" fill="none" xmlns="http://www.w3.org/2000/svg">
<path d="M11.8761 21.8181C11.8039 21.8181 11.7317 21.8181 11.6589 21.8178C9.94871 21.822 8.36851 21.7785 6.83175 21.685C5.42284 21.5992 4.13677 21.1124 3.11238 20.2771C2.12395 19.4711 1.44895 18.3812 1.10621 17.0383C0.807917 15.869 0.792103 14.7213 0.776955 13.6112C0.765969 12.8147 0.75465 11.8708 0.752319 10.911C0.75465 9.94724 0.765969 9.00341 0.776955 8.2069C0.792103 7.09695 0.807917 5.94921 1.10621 4.77983C1.44895 3.43683 2.12395 2.34702 3.11238 1.54102C4.13677 0.705728 5.42284 0.218833 6.83192 0.133107C8.36867 0.0397227 9.94921 -0.00388978 11.6631 0.00027171C13.3738 -0.0033904 14.9535 0.0397227 16.4902 0.133107C17.8991 0.218833 19.1852 0.705728 20.2096 1.54102C21.1982 2.34702 21.873 3.43683 22.2158 4.77983C22.5141 5.94904 22.5299 7.09695 22.545 8.2069C22.556 9.00341 22.5675 9.94724 22.5697 10.907C22.5675 11.8708 22.556 12.8147 22.545 13.6112C22.5387 14.0819 22.1499 14.4581 21.6813 14.4518C21.2105 14.4453 20.8343 14.0585 20.8407 13.5879C20.8515 12.796 20.863 11.8584 20.8651 10.907C20.863 9.95972 20.8515 9.02205 20.8407 8.2302C20.8268 7.21963 20.8125 6.17459 20.5642 5.2013C20.3136 4.21953 19.8319 3.4325 19.1324 2.86205C18.3759 2.24498 17.452 1.89924 16.3867 1.83449C14.8861 1.74327 13.3413 1.70116 11.6631 1.70465C9.98083 1.70066 8.43592 1.74327 6.93529 1.83449C5.86995 1.89924 4.94627 2.24498 4.18954 2.86188C3.49008 3.43234 3.00835 4.21936 2.75782 5.2013C2.50947 6.17459 2.49515 7.21963 2.48133 8.2302C2.47051 9.02205 2.4592 9.95972 2.45686 10.911C2.4592 11.8584 2.47051 12.796 2.48133 13.5879C2.49515 14.5985 2.50947 15.6435 2.75782 16.6168C3.00835 17.5986 3.49008 18.3856 4.18954 18.956C4.94627 19.5731 5.86995 19.9188 6.93529 19.9836C8.43592 20.0748 9.98117 20.1174 11.6591 20.1133C13.3415 20.1173 14.8861 20.0748 16.3867 19.9836C17.452 19.9188 18.3757 19.5731 19.1324 18.956C19.6363 18.545 20.03 18.0177 20.3025 17.3885C20.4896 16.9567 20.9913 16.7581 21.4233 16.9452C21.8552 17.1323 22.0536 17.634 21.8667 18.066C21.4847 18.948 20.9272 19.692 20.2096 20.2771C19.1852 21.1125 17.8991 21.5992 16.4902 21.685C15.0186 21.7745 13.5068 21.8181 11.8761 21.8181ZM16.945 10.909C16.945 7.97186 14.5555 5.58233 11.6183 5.58233C8.68129 5.58233 6.29159 7.97186 6.29159 10.909C6.29159 13.8462 8.68129 16.2358 11.6183 16.2358C14.5555 16.2358 16.945 13.8462 16.945 10.909ZM15.2405 10.909C15.2405 12.9062 13.6156 14.5312 11.6183 14.5312C9.62112 14.5312 7.99614 12.9062 7.99614 10.909C7.99614 8.91186 9.62112 7.28688 11.6183 7.28688C13.6156 7.28688 15.2405 8.91186 15.2405 10.909ZM17.5416 3.87778C16.8356 3.87778 16.2632 4.45007 16.2632 5.15619C16.2632 5.86232 16.8356 6.4346 17.5416 6.4346C18.2477 6.4346 18.82 5.86232 18.82 5.15619C18.82 4.45007 18.2477 3.87778 17.5416 3.87778Z" fill="white"/>
</svg>
