<svg width="18" height="18" viewBox="0 0 18 18" fill="none" xmlns="http://www.w3.org/2000/svg">
<g clip-path="url(#clip0)">
<path d="M7.90496 10.4812C6.25616 8.83575 5.88387 7.19035 5.79988 6.53112C5.77642 6.34884 5.83927 6.16604 5.96995 6.03655L7.30424 4.70561C7.50051 4.50986 7.53534 4.20479 7.38822 3.96999L5.26379 0.678C5.10103 0.418008 4.76684 0.324174 4.4921 0.461328L1.08163 2.06423C0.859462 2.1734 0.728787 2.40896 0.754011 2.6548C0.932711 4.34894 1.67282 8.51357 5.77397 12.6066C9.87512 16.6996 14.0478 17.4378 15.7463 17.6162C15.9926 17.6414 16.2287 17.5109 16.3381 17.2892L17.9443 13.8858C18.0812 13.6122 17.9878 13.2796 17.7284 13.1169L14.4296 10.9974C14.1944 10.8505 13.8887 10.885 13.6924 11.0806L12.3587 12.4122C12.229 12.5426 12.0458 12.6053 11.8632 12.5819C11.2026 12.4981 9.55376 12.1266 7.90496 10.4812Z" fill="white"/>
<path d="M14.4521 9.5951C14.1232 9.5951 13.8565 9.32896 13.8565 9.00066C13.8537 6.53958 11.8552 4.54517 9.389 4.54239C9.06002 4.54239 8.79333 4.27625 8.79333 3.94795C8.79333 3.61965 9.06002 3.35352 9.389 3.35352C12.5128 3.35696 15.0444 5.88326 15.0478 9.00066C15.0478 9.32896 14.7811 9.5951 14.4521 9.5951Z" fill="white"/>
<path d="M17.4305 9.59463C17.1015 9.59463 16.8348 9.32849 16.8348 9.0002C16.8302 4.89837 13.4993 1.57432 9.389 1.56973C9.06002 1.56973 8.79333 1.30359 8.79333 0.975296C8.79333 0.646998 9.06002 0.380859 9.389 0.380859C14.157 0.386101 18.0209 4.24204 18.0261 9.0002C18.0261 9.15785 17.9634 9.30905 17.8517 9.42053C17.74 9.532 17.5885 9.59463 17.4305 9.59463Z" fill="white"/>
</g>
<defs>
<clipPath id="clip0">
<rect width="17.2743" height="17.2387" fill="white" transform="translate(0.752197 0.380859)"/>
</clipPath>
</defs>
</svg>
