<svg width="1130" height="1405" viewBox="0 0 1130 1405" fill="none" xmlns="http://www.w3.org/2000/svg">
<g opacity="0.15">
<path d="M152.428 1119.06L155.369 1097.62L151.588 1087.96L147.389 1082.92L141.507 1071.57L125.541 1055.6L140.246 1060.22L155.79 1077.45L154.529 1081.24L159.153 1085.02L161.254 1092.16L170.498 1100.15L173.018 1098.89V1103.51L177.22 1109.81L180.579 1110.23V1113.6L188.565 1125.79L199.068 1133.77L203.27 1145.96L194.447 1140.91L186.883 1130.83L180.163 1127.05L177.222 1117.8L170.079 1112.76L166.717 1104.77L159.155 1100.57L159.99 1110.65L152.428 1119.06ZM926.54 696.07L933.683 699.221L935.363 697.12L938.094 700.062L943.346 700.692L944.816 698.384L945.447 689.137L941.457 688.506L940.617 687.454L942.927 685.983L942.087 684.303L938.937 684.934L932.843 679.471H926.752L923.39 681.573L922.759 686.619L923.597 689.561L926.116 690.398L928.427 693.34L926.54 696.07ZM853.996 612.156L860.234 614.239H864.097L863.501 611.86L865.88 610.076L863.8 608.591L856.671 608.294L853.996 612.156ZM579.293 850.093L589.375 842.108L622.566 833.282L654.496 828.658L672.563 807.646L693.15 788.734L709.114 786.214L712.055 774.868L709.114 763.101L714.574 746.709L718.776 741.247L717.515 734.523L707.434 740.406L700.712 753.435L690.63 763.941L677.605 771.926L673.403 775.706L669.622 771.926L667.102 779.069L657.018 786.635L654.498 783.693L650.717 789.998L637.273 798.402L627.61 799.661L619.627 803.443L620.465 805.964L614.164 808.484L613.743 804.705L610.381 806.806L601.979 809.327L604.08 811.428L596.937 817.733L584.754 816.893L578.872 822.358L575.931 826.98L569.209 830.762L576.771 829.922L570.889 837.067L571.729 841.689L580.552 834.125L572.99 842.95L579.293 850.093ZM767.517 917.333L778.86 911.449L782.638 912.711L783.06 905.987L785.579 902.624V898.844L789.36 888.758L783.899 882.874L777.178 885.394L770.874 891.278L776.756 898.423L770.037 902.624L766.675 909.769L767.517 917.333ZM1052.16 284.638L1042.29 291.152L1038.09 302.079L1043.76 310.695L1041.03 320.782L1034.51 323.724L1033.88 333.599L1037.03 337.381L1029.89 345.154L1026.95 350.828L1030.31 361.965L1027.79 367.639L1027.37 379.197L1023.38 383.609L1016.24 385.502L1012.67 393.066L1006.79 397.899L1004.9 428.579L1005.73 431.73L1004.26 440.974L1006.15 444.337L1000.48 458.625V468.081L1005.73 471.444L1005.94 480.689L998.592 485.523L1001.95 500.441L1008.05 507.165L1010.15 519.563L1016.24 527.127L1008.05 540.995L999.858 560.957L963.726 604.032L958.265 619.162L958.686 621.264L952.592 624.627L949.442 631.351L951.962 633.871L953.011 636.392L955.952 635.97L951.962 640.804L956.162 639.755L957.632 644.377L951.541 644.798L954.903 648.373L949.23 656.777V658.458L955.952 661.821L953.432 668.754L947.972 670.855L950.073 674.009L946.922 676.739L935.579 677.372L919.613 673.797L916.463 671.489L922.345 664.555L925.286 664.344V662.032L927.594 661.195L926.545 656.782L928.015 654.049L931.587 651.948L929.067 650.265L928.857 647.535L936.21 642.701L929.279 641.44L923.397 635.137L929.488 636.608L924.446 631.144L926.966 624.629L932.427 629.673L930.747 624.001L934.109 624.841L933.897 622.318L928.646 617.906L926.545 606.138L913.31 610.972L905.958 610.551L899.866 615.385L897.975 618.539L881.799 632.407L879.279 643.334L871.294 655.523L870.456 662.668L857.852 684.519L845.667 699.228L846.928 703.432L839.785 711.836L855.751 703.851L857.01 700.487L899.866 682.837L912.468 695.863L918.35 711.412L920.453 742.932L910.79 753.44L907.849 751.757L905.33 758.481L898.186 762.684L893.144 762.263L888.523 770.248L880.538 774.873L873.397 774.032L867.094 766.047L859.53 765.207L844.406 778.233L843.145 782.015L827.179 797.986L828.44 800.087L814.156 812.695L800.291 820.258L801.971 825.721L802.392 830.345L805.755 829.924L809.954 836.645L804.912 846.732L799.87 847.994L801.55 855.136L792.727 858.5L788.527 864.383L788.946 869.426L752.396 894.643L743.573 911.454L733.489 917.759L728.868 921.96L710.382 932.468L697.778 931.206L696.94 926.584L694.42 930.785L676.353 929.105L674.25 932.468L651.562 944.235L650.303 949.697L639.377 959.784L606.188 969.869L602.407 975.331L565.435 1000.13L564.174 1019.46L556.612 1036.27L546.528 1041.31L534.343 1033.75L533.503 1029.55L526.784 1029.13L528.042 1024.08L523.843 1023.66L520.902 1031.65L520.062 1026.18L512.909 1031.22V1025.76L509.549 1029.54L508.288 1025.76L504.926 1029.96L500.305 1027.02L498.202 1022.82L495.682 1028.7L492.741 1027.86L490.64 1031.64L486.859 1029.96V1032.91L477.617 1032.48L474.676 1037.95L470.898 1046.77L467.536 1043.83L457.452 1052.66V1062.32L458.713 1063.58L459.55 1069.88L456.609 1071.99L458.292 1076.19L463.334 1082.91L466.696 1088.8L460.393 1096.78L457.03 1096.36L456.609 1103.51L454.508 1100.99L451.988 1114.01L448.207 1118.64L438.966 1135.87L441.907 1130.4L448.626 1138.81L449.466 1145.11L433.921 1154.78L437.702 1137.96L433.921 1155.19L430.561 1165.7L416.278 1182.52L407.034 1202.27L394.432 1206.47L393.171 1203.95L388.55 1209.83L377.624 1214.03L376.786 1211.93L370.904 1212.35L365.022 1217.4L344.435 1224.96L335.191 1225.8L323.848 1236.31L301.579 1242.61L276.371 1246.39L249.481 1257.32L241.079 1257.74L230.995 1267.41L220.913 1269.09C220.913 1269.09 212.928 1277.49 211.669 1279.59C210.408 1281.7 184.36 1272.03 184.36 1272.03L166.293 1279.17L149.908 1269.09L141.085 1272.87L113.355 1266.15L109.156 1259L100.333 1260.68L91.0886 1251.44L81.4257 1252.7L66.2995 1237.57L54.5356 1235.89L30.17 1220.76L28.9089 1212.77L32.0593 1202.9L49.917 1203.95L56.0084 1201L59.5823 1202.68L78.2776 1196.59L99.074 1194.07L115.88 1186.72L139.408 1183.14L139.62 1185.66L143.191 1182.51L148.864 1182.09L150.965 1184.82L156.426 1183.14L164.199 1183.98L171.754 1182.72L179.528 1183.36L183.102 1186.72L197.807 1174.32L198.437 1169.91L202.009 1164.24L207.046 1164.66L209.778 1162.76L216.921 1163.6L228.264 1171.8L261.036 1154.35L264.395 1153.94L266.499 1156.04L274.061 1155.83L280.992 1150.78L285.825 1150.57L290.867 1146.79L293.177 1136.49L296.958 1131.87L300.948 1131.66L314.813 1119.89L320.907 1120.31L326.156 1111.28L341.913 1096.78L358.088 1073.25L360.189 1063.58L374.683 1046.35L387.708 1025.13L388.338 1021.35L397.582 1008.53L403.885 995.29L417.96 983.945L426.15 981.212L428.882 977.432L445.897 970.499L448.417 971.758L449.257 969.447L471.945 953.689L484.549 951.587L490.219 947.805L513.326 920.279L511.646 909.774L517.528 912.716L520.678 909.562L518.37 908.512V907.248L520.89 906.827L520.678 903.885L534.962 895.481L540.006 895.06L541.896 891.278L544.418 889.598L545.255 885.394L544.418 882.031L546.098 872.368L550.719 869.426L552.401 863.962L559.963 862.703L559.542 858.5L572.567 850.935L567.525 848.834L568.783 844.631L562.48 842.95L564.584 838.326L557.441 842.108L562.064 833.704L543.578 843.788L548.199 832.442L554.081 832.021L552.822 825.716L563.746 822.774L564.586 812.69L581.811 801.761L586.853 787.892L598.617 781.587L601.558 775.284L618.364 767.718L627.187 757.212L629.29 758.471L658.7 738.719L659.121 735.356L674.247 729.051L677.607 717.284L673.829 713.921L675.087 703.415L690.632 673.157L738.528 633.233L746.09 630.292L755.334 618.946L766.258 616.842L766.679 611.798L778.022 602.552L783.483 593.305L788.527 591.203L786.424 587.84L788.944 568.928L793.988 569.138L797.56 558.42L799.242 558.841L803.021 544.973L801.55 538.249L801.762 533.627L811.634 524.382L825.078 506.101L823.819 500.427L833.273 490.761L838.105 490.342L839.364 485.93L836.004 482.778L838.312 470.802L841.044 467.86L839.783 464.078L843.145 459.244L840.835 453.991L852.389 432.768L865.203 421.001L864.363 418.48L871.085 412.387V410.286L876.336 400.829L878.437 401.248V397.045L885.159 387.17L888.521 373.511L891.041 372.671L889.78 362.793L895.241 357.962L897.344 352.709L893.77 346.825L899.443 334.218L906.586 334.008L905.534 329.596L907.426 319.718L912.887 316.988L913.098 312.154L907.847 308.163L907.638 304.381L917.931 297.236L924.651 285.888L940.196 282.946L939.986 273.911L937.255 270.339L949.44 250.167L949.861 250.798L955.322 211.715L953.221 200.369L955.74 193.645L960.361 191.543L957.841 186.5L960.783 182.718L957.002 180.195L959.105 178.093L954.058 174.742L951.117 168.859L955.319 167.597L949.858 160.873L957.42 150.368L953.218 141.542L957.42 137.339L956.159 132.717L979.687 126.833L983.468 110.442L993.973 104.139L1017.08 76.4016L1027.16 75.5614L1025.06 70.518L1043.97 50.7656L1055.73 58.3296L1054.47 68.8353L1075.06 81.4426L1080.94 91.5294L1074.64 96.5729L1083.46 102.456L1085.14 109.601L1078.42 113.383L1076.32 122.63L1066.66 131.455L1063.29 143.223L1070.44 147.845L1062.87 152.888L1063.29 161.714L1074.22 166.757L1062.88 170.539L1058.25 191.131L1059.93 193.233L1056.15 205.84L1050.69 212.985L1055.74 220.971L1054.48 233.999L1042.29 247.026L1043.13 253.749L1049.01 260.894L1044.81 263.836L1052.16 284.638Z" fill="#C6ECFF" stroke="#0978AB" stroke-linecap="round" stroke-linejoin="round"/>
</g>
</svg>
