<svg width="25" height="24" viewBox="0 0 25 24" fill="none" xmlns="http://www.w3.org/2000/svg">
<g clip-path="url(#clip0)">
<path d="M21.8541 2.68494C19.957 0.825027 16.8898 -0.07617 12.7364 0.00503608C8.54835 0.0874053 5.74886 0.82249 3.92627 2.31846C2.16405 3.76473 1.34332 5.88106 1.34332 8.97863V12.14C1.34332 15.7968 3.30284 19.817 7.04795 20.4253C7.4803 20.496 7.8876 20.2021 7.95781 19.7696C8.02802 19.3374 7.7345 18.93 7.30214 18.8598C4.46193 18.3984 2.92938 15.0532 2.92938 12.14V8.97863C2.92938 4.53703 4.57518 1.75181 12.7675 1.59067C16.4815 1.51708 19.1621 2.26686 20.7435 3.81739C21.9759 5.02586 22.575 6.71405 22.575 8.97863V12.14C22.575 16.9271 20.4263 19.0386 14.9153 19.6603H11.0075C10.7972 19.6603 10.5954 19.7438 10.4468 19.8926L7.69326 22.6461C7.38355 22.9558 7.38355 23.4579 7.69326 23.7677C7.84806 23.9225 8.05107 24 8.25398 24C8.45689 24 8.65991 23.9226 8.81471 23.7677L11.336 21.2464H14.9596C14.9888 21.2464 15.0181 21.2448 15.0472 21.2415C18.2011 20.8912 20.3609 20.0703 21.8438 18.6581C23.4032 17.1731 24.1612 15.0411 24.1612 12.1398V8.97863C24.1612 6.30358 23.385 4.18609 21.8541 2.68494Z" fill="white"/>
<path d="M13.2472 5.18068C13.2473 5.18068 13.2473 5.18068 13.2476 5.18068C14.5254 5.18068 15.7268 5.67838 16.6304 6.58201C17.5341 7.48575 18.0318 8.68735 18.0317 9.96539C18.0317 10.4034 18.3867 10.7584 18.8247 10.7584C18.8248 10.7584 18.8248 10.7584 18.8248 10.7584C19.2627 10.7584 19.6178 10.4035 19.6178 9.9655C19.6179 8.26376 18.9552 6.66385 17.752 5.46056C16.5488 4.25728 14.9492 3.59473 13.2476 3.59473C13.2474 3.59473 13.2471 3.59473 13.247 3.59473C12.8091 3.59473 12.4541 3.94979 12.4541 4.38776C12.4542 4.82561 12.8093 5.18068 13.2472 5.18068Z" fill="white"/>
<path d="M13.247 7.96887C14.3475 7.96908 15.243 8.86446 15.2431 9.96487C15.2432 10.4028 15.5982 10.7579 16.0363 10.7578C16.4743 10.7578 16.8293 10.4026 16.8292 9.96466C16.8289 7.98991 15.2221 6.38313 13.2472 6.38281H13.2471C12.8092 6.38281 12.4542 6.73777 12.4541 7.17574C12.4541 7.6137 12.8091 7.96887 13.247 7.96887Z" fill="white"/>
<path d="M9.69126 9.32862C9.32975 9.57584 9.23702 10.0693 9.48413 10.4308C9.73123 10.7923 10.2248 10.885 10.5863 10.6379C10.8707 10.4435 11.5366 9.98821 11.4899 9.07803C11.4602 8.53327 10.9689 7.75547 10.5619 7.19887C9.9666 6.38448 9.45357 5.89397 9.04024 5.74192C8.6543 5.59822 8.2507 5.59515 7.83981 5.73303C6.98873 6.01979 6.3708 6.53801 6.05296 7.23165C5.74346 7.90688 5.75034 8.68289 6.07294 9.47623C6.83488 11.3455 7.90156 12.9819 9.25045 14.3472C10.6086 15.6889 12.245 16.7556 14.115 17.518C14.5196 17.6826 14.92 17.765 15.3047 17.765C15.6738 17.765 16.0285 17.6893 16.359 17.5377C17.0527 17.2198 17.5708 16.602 17.8579 15.7498C17.9953 15.3399 17.9923 14.9365 17.8497 14.5532C17.6966 14.1369 17.206 13.624 16.3917 13.0287C15.835 12.6217 15.0572 12.1303 14.5103 12.1006C13.6021 12.055 13.1472 12.7197 12.9528 13.004C12.7056 13.3656 12.7981 13.859 13.1597 14.1064C13.5213 14.3537 14.0146 14.2611 14.262 13.8995C14.3482 13.7734 14.3975 13.7161 14.4257 13.691C14.8709 13.8337 16.1403 14.7663 16.3688 15.1237C16.3744 15.1465 16.3756 15.1813 16.3545 15.2446C16.2545 15.5416 16.0594 15.9304 15.6983 16.096C15.36 16.2508 14.9757 16.1559 14.7132 16.0492C13.0376 15.366 11.5748 14.4138 10.3719 13.2257C9.17696 12.0161 8.2248 10.5533 7.54205 8.87829C7.43505 8.61522 7.33999 8.23065 7.49489 7.89272C7.66037 7.53162 8.04927 7.33643 8.34534 7.23662C8.40857 7.21547 8.44335 7.21663 8.46746 7.22245C8.82496 7.45137 9.75703 8.72 9.89978 9.16526C9.87461 9.19307 9.81741 9.24245 9.69126 9.32862Z" fill="white"/>
</g>
<defs>
<clipPath id="clip0">
<rect width="24" height="24" fill="white" transform="translate(0.752197)"/>
</clipPath>
</defs>
</svg>
