<svg width="23" height="22" viewBox="0 0 23 22" fill="none" xmlns="http://www.w3.org/2000/svg">
<g clip-path="url(#clip0)">
<path d="M11.5701 0C5.67422 0 0.877747 4.79667 0.877747 10.6925C0.877747 13 1.81432 15.0718 2.21708 15.8555C2.40459 16.2206 2.85262 16.3642 3.21744 16.1768C3.58236 15.9893 3.72619 15.5413 3.53868 15.1764C3.18544 14.4889 2.36368 12.6755 2.36368 10.6924C2.36358 5.61596 6.4936 1.48583 11.5701 1.48583C16.6471 1.48583 20.7774 5.61596 20.7774 10.6925C20.7774 15.7692 16.6471 19.8993 11.5701 19.8993C9.58463 19.8993 8.00698 19.2118 7.42076 18.9161C7.24692 18.8284 7.04554 18.8125 6.86011 18.8719L2.18053 20.3673C1.78975 20.4922 1.57411 20.9102 1.69902 21.3011C1.79986 21.6168 2.09207 21.8181 2.40647 21.8181C2.48146 21.8181 2.55763 21.8067 2.63281 21.7826L7.02999 20.3774C7.94992 20.8044 9.56908 21.3851 11.5701 21.3851C17.4663 21.3851 22.2633 16.5884 22.2633 10.6925C22.2633 4.79667 17.4663 0 11.5701 0Z" fill="white"/>
<path d="M9.46215 8.86941C9.13675 9.11932 9.07563 9.58568 9.32545 9.91118C9.57537 10.2366 10.0416 10.2978 10.3672 10.0479C10.5949 9.87294 11.1999 9.40837 11.1113 8.57739C11.0567 8.0834 10.5747 7.40556 10.18 6.92405C9.60241 6.21937 9.11347 5.80205 8.72953 5.68457C8.36976 5.57303 8.00108 5.59067 7.63338 5.73707C6.877 6.03939 6.34318 6.54021 6.0896 7.18546C5.84266 7.81387 5.88753 8.51707 6.21966 9.21977C6.99497 10.8564 8.03119 12.2698 9.2996 13.421C9.30455 13.4257 9.3096 13.4302 9.31465 13.4348C10.6011 14.5719 12.1231 15.4481 13.839 16.0393C14.1646 16.1511 14.4842 16.2069 14.791 16.2069C15.1766 16.2069 15.5422 16.1189 15.8747 15.9436C16.488 15.6202 16.9268 15.0345 17.144 14.2482C17.2486 13.8671 17.2252 13.499 17.0758 13.1562C16.9154 12.7853 16.4468 12.3456 15.6826 11.8494C15.1607 11.5104 14.4344 11.1065 13.9353 11.1065C13.935 11.1065 13.9346 11.1065 13.9342 11.1065C13.1015 11.1098 12.7062 11.7623 12.5574 12.0081C12.3449 12.359 12.457 12.8159 12.8079 13.0285C13.1587 13.241 13.6156 13.129 13.8283 12.7779C13.8871 12.6809 13.9243 12.6294 13.9477 12.6024C14.3673 12.7243 15.4897 13.4585 15.7197 13.7674C15.7234 13.7839 15.7239 13.8087 15.7116 13.854C15.6384 14.119 15.4869 14.4685 15.1817 14.6294C14.8965 14.7796 14.5565 14.7149 14.3222 14.6344C12.7955 14.1085 11.4443 13.3327 10.3062 12.3285C10.3059 12.3282 10.3055 12.3279 10.3052 12.3275C9.17825 11.3065 8.25545 10.047 7.56256 8.58442C7.45647 8.35977 7.35454 8.02902 7.47242 7.72918C7.59862 7.40804 7.92936 7.21904 8.18393 7.11731C8.22762 7.09988 8.25228 7.0972 8.27021 7.09958C8.60284 7.29422 9.45581 8.32807 9.62331 8.73172C9.59914 8.75777 9.55199 8.80037 9.46215 8.86941Z" fill="white"/>
</g>
<defs>
<clipPath id="clip0">
<rect width="21.8182" height="21.8182" fill="white" transform="translate(0.661438)"/>
</clipPath>
</defs>
</svg>
